<?xml version="1.0" encoding="UTF-8"?>
<!DOCTYPE svg PUBLIC "-//W3C//DTD SVG 1.1//EN" "http://www.w3.org/Graphics/SVG/1.1/DTD/svg11.dtd">
<svg version="1.2" width="209.57mm" height="60.36mm" viewBox="4174 5126 20957 6036" preserveAspectRatio="xMidYMid" fill-rule="evenodd" stroke-width="28.222" stroke-linejoin="round" xmlns="http://www.w3.org/2000/svg" xmlns:ooo="http://xml.openoffice.org/svg/export" xmlns:xlink="http://www.w3.org/1999/xlink" xmlns:presentation="http://sun.com/xmlns/staroffice/presentation" xmlns:smil="http://www.w3.org/2001/SMIL20/" xmlns:anim="urn:oasis:names:tc:opendocument:xmlns:animation:1.0" xmlns:svg="urn:oasis:names:tc:opendocument:xmlns:svg-compatible:1.0" xml:space="preserve">
 <defs class="EmbeddedBulletChars">
  <g id="bullet-char-template-57356" transform="scale(0.00048828125,-0.00048828125)">
   <path d="M 580,1141 L 1163,571 580,0 -4,571 580,1141 Z"/>
  </g>
  <g id="bullet-char-template-57354" transform="scale(0.00048828125,-0.00048828125)">
   <path d="M 8,1128 L 1137,1128 1137,0 8,0 8,1128 Z"/>
  </g>
  <g id="bullet-char-template-10146" transform="scale(0.00048828125,-0.00048828125)">
   <path d="M 174,0 L 602,739 174,1481 1456,739 174,0 Z M 1358,739 L 309,1346 659,739 1358,739 Z"/>
  </g>
  <g id="bullet-char-template-10132" transform="scale(0.00048828125,-0.00048828125)">
   <path d="M 2015,739 L 1276,0 717,0 1260,543 174,543 174,936 1260,936 717,1481 1274,1481 2015,739 Z"/>
  </g>
  <g id="bullet-char-template-10007" transform="scale(0.00048828125,-0.00048828125)">
   <path d="M 0,-2 C -7,14 -16,27 -25,37 L 356,567 C 262,823 215,952 215,954 215,979 228,992 255,992 264,992 276,990 289,987 310,991 331,999 354,1012 L 381,999 492,748 772,1049 836,1024 860,1049 C 881,1039 901,1025 922,1006 886,937 835,863 770,784 769,783 710,716 594,584 L 774,223 C 774,196 753,168 711,139 L 727,119 C 717,90 699,76 672,76 641,76 570,178 457,381 L 164,-76 C 142,-110 111,-127 72,-127 30,-127 9,-110 8,-76 1,-67 -2,-52 -2,-32 -2,-23 -1,-13 0,-2 Z"/>
  </g>
  <g id="bullet-char-template-10004" transform="scale(0.00048828125,-0.00048828125)">
   <path d="M 285,-33 C 182,-33 111,30 74,156 52,228 41,333 41,471 41,549 55,616 82,672 116,743 169,778 240,778 293,778 328,747 346,684 L 369,508 C 377,444 397,411 428,410 L 1163,1116 C 1174,1127 1196,1133 1229,1133 1271,1133 1292,1118 1292,1087 L 1292,965 C 1292,929 1282,901 1262,881 L 442,47 C 390,-6 338,-33 285,-33 Z"/>
  </g>
  <g id="bullet-char-template-9679" transform="scale(0.00048828125,-0.00048828125)">
   <path d="M 813,0 C 632,0 489,54 383,161 276,268 223,411 223,592 223,773 276,916 383,1023 489,1130 632,1184 813,1184 992,1184 1136,1130 1245,1023 1353,916 1407,772 1407,592 1407,412 1353,268 1245,161 1136,54 992,0 813,0 Z"/>
  </g>
  <g id="bullet-char-template-8226" transform="scale(0.00048828125,-0.00048828125)">
   <path d="M 346,457 C 273,457 209,483 155,535 101,586 74,649 74,723 74,796 101,859 155,911 209,963 273,989 346,989 419,989 480,963 531,910 582,859 608,796 608,723 608,648 583,586 532,535 482,483 420,457 346,457 Z"/>
  </g>
  <g id="bullet-char-template-8211" transform="scale(0.00048828125,-0.00048828125)">
   <path d="M -4,459 L 1135,459 1135,606 -4,606 -4,459 Z"/>
  </g>
  <g id="bullet-char-template-61548" transform="scale(0.00048828125,-0.00048828125)">
   <path d="M 173,740 C 173,903 231,1043 346,1159 462,1274 601,1332 765,1332 928,1332 1067,1274 1183,1159 1299,1043 1357,903 1357,740 1357,577 1299,437 1183,322 1067,206 928,148 765,148 601,148 462,206 346,322 231,437 173,577 173,740 Z"/>
  </g>
 </defs>
 <g class="Page">
  <g class="com.sun.star.drawing.PolyPolygonShape">
   <g id="id3">
    <rect class="BoundingBox" stroke="none" fill="none" x="4174" y="5126" width="20957" height="4234"/>
    <path fill="rgb(255,0,0)" stroke="none" d="M 25127,9359 L 25130,9257 25127,9155 25118,9053 25102,8951 25079,8849 25051,8747 25016,8646 24974,8545 24927,8445 24873,8345 24813,8246 24746,8147 24673,8049 24595,7951 24510,7855 24419,7759 24322,7664 24219,7571 24111,7478 23996,7386 23876,7296 23750,7206 23619,7118 23482,7032 23340,6946 23192,6862 23039,6780 22881,6699 22718,6619 22550,6541 22377,6465 22200,6391 22018,6318 21831,6247 21640,6178 21445,6111 21245,6046 21042,5982 20834,5921 20623,5862 20408,5805 20190,5750 19968,5697 19743,5646 19515,5597 19283,5551 19049,5507 18813,5465 18573,5426 18332,5389 18088,5354 17842,5322 17594,5292 17344,5265 17093,5240 16840,5217 16586,5197 16330,5179 16074,5164 15816,5152 15558,5141 15300,5134 15041,5129 14782,5126 14522,5126 14263,5129 14004,5134 13746,5141 13488,5152 13230,5164 12974,5179 12718,5197 12464,5217 12211,5240 11960,5265 11710,5292 11462,5322 11216,5354 10972,5389 10731,5426 10491,5465 10255,5507 10021,5551 9790,5597 9561,5646 9336,5697 9114,5750 8896,5805 8681,5862 8470,5921 8262,5982 8059,6046 7859,6111 7664,6178 7473,6247 7286,6318 7104,6391 6927,6465 6754,6541 6586,6619 6423,6699 6265,6780 6112,6862 5964,6946 5822,7032 5685,7118 5554,7206 5428,7296 5308,7386 5193,7478 5085,7571 4982,7664 4885,7759 4794,7855 4709,7951 4631,8049 4558,8147 4491,8246 4431,8345 4377,8445 4330,8545 4288,8646 4253,8747 4225,8849 4202,8951 4186,9053 4177,9155 4174,9257 4177,9359 6688,9334 6685,9256 6687,9178 6694,9101 6706,9023 6723,8946 6745,8869 6772,8792 6803,8715 6839,8639 6880,8563 6926,8487 6976,8412 7032,8337 7091,8263 7156,8190 7225,8117 7299,8045 7377,7974 7459,7903 7546,7834 7638,7765 7733,7697 7833,7630 7937,7564 8046,7499 8158,7435 8274,7372 8394,7311 8518,7250 8646,7191 8777,7133 8912,7077 9051,7021 9192,6968 9338,6915 9486,6864 9638,6814 9793,6766 9950,6720 10111,6675 10274,6631 10440,6589 10609,6549 10780,6510 10954,6473 11129,6438 11307,6405 11487,6373 11669,6343 11853,6315 12038,6289 12225,6264 12414,6241 12604,6220 12795,6201 12987,6184 13181,6169 13375,6156 13570,6144 13766,6134 13962,6127 14158,6121 14355,6117 14552,6115 14750,6115 14947,6117 15144,6121 15340,6127 15536,6134 15732,6144 15927,6156 16121,6169 16315,6184 16507,6201 16698,6220 16888,6241 17077,6264 17264,6289 17449,6315 17633,6343 17815,6373 17995,6405 18173,6438 18348,6473 18522,6510 18693,6549 18862,6589 19028,6631 19191,6675 19352,6720 19509,6766 19664,6814 19816,6864 19964,6915 20110,6968 20251,7021 20390,7077 20525,7133 20656,7191 20784,7250 20908,7311 21028,7372 21144,7435 21256,7499 21365,7564 21469,7630 21569,7697 21664,7765 21756,7834 21843,7903 21925,7974 22003,8045 22077,8117 22146,8190 22211,8263 22270,8337 22326,8412 22376,8487 22422,8563 22463,8639 22499,8715 22530,8792 22557,8869 22579,8946 22596,9023 22608,9101 22615,9178 22617,9256 22614,9334 25127,9359 Z"/>
   </g>
  </g>
  <g class="com.sun.star.drawing.PolyPolygonShape">
   <g id="id4">
    <rect class="BoundingBox" stroke="none" fill="none" x="4808" y="5443" width="19689" height="5719"/>
    <path fill="rgb(112,128,144)" stroke="none" d="M 23860,9572 L 23826,9381 23812,9286 23792,9191 23767,9097 23736,9002 23700,8908 23658,8814 23611,8721 23558,8628 23499,8536 23436,8445 23367,8354 23292,8264 23212,8175 23127,8086 23037,7999 22942,7912 22842,7827 22736,7743 22626,7659 22511,7577 22391,7496 22266,7417 22136,7338 22002,7261 21864,7186 21721,7112 21574,7039 21422,6968 21267,6899 21107,6831 20943,6765 20776,6700 20604,6638 20430,6577 20251,6518 20069,6460 19884,6405 19696,6352 19504,6301 19310,6251 19113,6204 18913,6159 18710,6115 18505,6074 18298,6036 18088,5999 17876,5964 17662,5932 17447,5902 17229,5874 17010,5848 16790,5825 16569,5804 16346,5785 16122,5769 15897,5755 15672,5743 15445,5733 15219,5726 14992,5722 14765,5719 14537,5719 14310,5722 14083,5726 13857,5733 13630,5743 13405,5755 13180,5769 12956,5785 12733,5804 12512,5825 12291,5848 12073,5874 11855,5902 11640,5932 11426,5964 11214,5999 11004,6036 10797,6074 10592,6115 10389,6159 10189,6204 9992,6251 9798,6301 9606,6352 9418,6405 9233,6460 9051,6518 8872,6577 8697,6638 8526,6700 8359,6765 8195,6831 8035,6899 7880,6968 7728,7039 7581,7112 7438,7186 7300,7261 7166,7338 7036,7417 6911,7496 6791,7577 6676,7659 6566,7743 6460,7827 6360,7912 6265,7999 6175,8086 6090,8175 6010,8264 5935,8354 5866,8445 5803,8536 5744,8628 5691,8721 5644,8814 5602,8908 5566,9002 5535,9097 5510,9191 5490,9286 5476,9381 5468,9477 5445,9572 5444,9763 5444,11160 4809,11160 4809,9572 4812,9470 4821,9368 4836,9266 4857,9164 4884,9063 4917,8961 4956,8861 5001,8760 5052,8660 5109,8561 5171,8462 5240,8364 5314,8267 5393,8171 5479,8075 5570,7980 5667,7887 5769,7794 5876,7702 5989,7612 6108,7523 6231,7435 6360,7348 6493,7263 6632,7179 6776,7096 6924,7015 7077,6936 7235,6858 7397,6782 7564,6708 7735,6635 7911,6564 8090,6495 8274,6428 8461,6363 8652,6300 8847,6238 9045,6179 9247,6122 9452,6067 9660,6014 9872,5963 10086,5915 10303,5869 10523,5825 10745,5783 10970,5744 11197,5707 11426,5672 11657,5640 11890,5610 12124,5582 12360,5557 12598,5535 12836,5515 13076,5497 13317,5482 13559,5470 13801,5459 14044,5452 14287,5447 14530,5444 14774,5444 15017,5447 15260,5452 15503,5459 15745,5470 15987,5482 16228,5497 16468,5515 16706,5535 16944,5557 17180,5582 17414,5610 17647,5640 17878,5672 18107,5707 18334,5744 18559,5783 18781,5825 19001,5869 19218,5915 19432,5963 19644,6014 19852,6067 20057,6122 20259,6179 20457,6238 20652,6300 20843,6363 21031,6428 21214,6495 21393,6564 21569,6635 21740,6708 21907,6782 22069,6858 22227,6936 22380,7015 22528,7096 22672,7179 22811,7263 22944,7348 23073,7435 23196,7523 23315,7612 23428,7702 23535,7794 23637,7887 23734,7980 23825,8075 23911,8171 23990,8267 24064,8364 24133,8462 24195,8561 24252,8660 24303,8760 24348,8861 24387,8961 24420,9063 24447,9164 24468,9266 24483,9368 24492,9470 24495,9572 24494,11160 23859,11160 23860,9572 Z"/>
    <path fill="none" stroke="rgb(112,128,144)" d="M 23860,9572 L 23826,9381 23812,9286 23792,9191 23767,9097 23736,9002 23700,8908 23658,8814 23611,8721 23558,8628 23499,8536 23436,8445 23367,8354 23292,8264 23212,8175 23127,8086 23037,7999 22942,7912 22842,7827 22736,7743 22626,7659 22511,7577 22391,7496 22266,7417 22136,7338 22002,7261 21864,7186 21721,7112 21574,7039 21422,6968 21267,6899 21107,6831 20943,6765 20776,6700 20604,6638 20430,6577 20251,6518 20069,6460 19884,6405 19696,6352 19504,6301 19310,6251 19113,6204 18913,6159 18710,6115 18505,6074 18298,6036 18088,5999 17876,5964 17662,5932 17447,5902 17229,5874 17010,5848 16790,5825 16569,5804 16346,5785 16122,5769 15897,5755 15672,5743 15445,5733 15219,5726 14992,5722 14765,5719 14537,5719 14310,5722 14083,5726 13857,5733 13630,5743 13405,5755 13180,5769 12956,5785 12733,5804 12512,5825 12291,5848 12073,5874 11855,5902 11640,5932 11426,5964 11214,5999 11004,6036 10797,6074 10592,6115 10389,6159 10189,6204 9992,6251 9798,6301 9606,6352 9418,6405 9233,6460 9051,6518 8872,6577 8697,6638 8526,6700 8359,6765 8195,6831 8035,6899 7880,6968 7728,7039 7581,7112 7438,7186 7300,7261 7166,7338 7036,7417 6911,7496 6791,7577 6676,7659 6566,7743 6460,7827 6360,7912 6265,7999 6175,8086 6090,8175 6010,8264 5935,8354 5866,8445 5803,8536 5744,8628 5691,8721 5644,8814 5602,8908 5566,9002 5535,9097 5510,9191 5490,9286 5476,9381 5468,9477 5445,9572 5444,9763 5444,11160 4809,11160 4809,9572 4812,9470 4821,9368 4836,9266 4857,9164 4884,9063 4917,8961 4956,8861 5001,8760 5052,8660 5109,8561 5171,8462 5240,8364 5314,8267 5393,8171 5479,8075 5570,7980 5667,7887 5769,7794 5876,7702 5989,7612 6108,7523 6231,7435 6360,7348 6493,7263 6632,7179 6776,7096 6924,7015 7077,6936 7235,6858 7397,6782 7564,6708 7735,6635 7911,6564 8090,6495 8274,6428 8461,6363 8652,6300 8847,6238 9045,6179 9247,6122 9452,6067 9660,6014 9872,5963 10086,5915 10303,5869 10523,5825 10745,5783 10970,5744 11197,5707 11426,5672 11657,5640 11890,5610 12124,5582 12360,5557 12598,5535 12836,5515 13076,5497 13317,5482 13559,5470 13801,5459 14044,5452 14287,5447 14530,5444 14774,5444 15017,5447 15260,5452 15503,5459 15745,5470 15987,5482 16228,5497 16468,5515 16706,5535 16944,5557 17180,5582 17414,5610 17647,5640 17878,5672 18107,5707 18334,5744 18559,5783 18781,5825 19001,5869 19218,5915 19432,5963 19644,6014 19852,6067 20057,6122 20259,6179 20457,6238 20652,6300 20843,6363 21031,6428 21214,6495 21393,6564 21569,6635 21740,6708 21907,6782 22069,6858 22227,6936 22380,7015 22528,7096 22672,7179 22811,7263 22944,7348 23073,7435 23196,7523 23315,7612 23428,7702 23535,7794 23637,7887 23734,7980 23825,8075 23911,8171 23990,8267 24064,8364 24133,8462 24195,8561 24252,8660 24303,8760 24348,8861 24387,8961 24420,9063 24447,9164 24468,9266 24483,9368 24492,9470 24495,9572 24494,11160 23859,11160 23860,9572 Z"/>
   </g>
  </g>
  <g class="com.sun.star.drawing.PolyPolygonShape">
   <g id="id5">
    <rect class="BoundingBox" stroke="none" fill="none" x="4174" y="5127" width="20957" height="4234"/>
    <path fill="rgb(255,0,0)" fill-opacity="0.522" stroke="none" d="M 25127,9360 L 25130,9258 25127,9156 25118,9054 25102,8952 25079,8850 25051,8748 25016,8647 24974,8546 24927,8446 24873,8346 24813,8247 24746,8148 24673,8050 24595,7952 24510,7856 24419,7760 24322,7665 24219,7572 24111,7479 23996,7387 23876,7297 23750,7207 23619,7119 23482,7033 23340,6947 23192,6863 23039,6781 22881,6700 22718,6620 22550,6542 22377,6466 22200,6392 22018,6319 21831,6248 21640,6179 21445,6112 21245,6047 21042,5983 20834,5922 20623,5863 20408,5806 20190,5751 19968,5698 19743,5647 19515,5598 19283,5552 19049,5508 18813,5466 18573,5427 18332,5390 18088,5355 17842,5323 17594,5293 17344,5266 17093,5241 16840,5218 16586,5198 16330,5180 16074,5165 15816,5153 15558,5142 15300,5135 15041,5130 14782,5127 14522,5127 14263,5130 14004,5135 13746,5142 13488,5153 13230,5165 12974,5180 12718,5198 12464,5218 12211,5241 11960,5266 11710,5293 11462,5323 11216,5355 10972,5390 10731,5427 10491,5466 10255,5508 10021,5552 9790,5598 9561,5647 9336,5698 9114,5751 8896,5806 8681,5863 8470,5922 8262,5983 8059,6047 7859,6112 7664,6179 7473,6248 7286,6319 7104,6392 6927,6466 6754,6542 6586,6620 6423,6700 6265,6781 6112,6863 5964,6947 5822,7033 5685,7119 5554,7207 5428,7297 5308,7387 5193,7479 5085,7572 4982,7665 4885,7760 4794,7856 4709,7952 4631,8050 4558,8148 4491,8247 4431,8346 4377,8446 4330,8546 4288,8647 4253,8748 4225,8850 4202,8952 4186,9054 4177,9156 4174,9258 4177,9360 6688,9335 6685,9257 6687,9179 6694,9102 6706,9024 6723,8947 6745,8870 6772,8793 6803,8716 6839,8640 6880,8564 6926,8488 6976,8413 7032,8338 7091,8264 7156,8191 7225,8118 7299,8046 7377,7975 7459,7904 7546,7835 7638,7766 7733,7698 7833,7631 7937,7565 8046,7500 8158,7436 8274,7373 8394,7312 8518,7251 8646,7192 8777,7134 8912,7078 9051,7022 9192,6969 9338,6916 9486,6865 9638,6815 9793,6767 9950,6721 10111,6676 10274,6632 10440,6590 10609,6550 10780,6511 10954,6474 11129,6439 11307,6406 11487,6374 11669,6344 11853,6316 12038,6290 12225,6265 12414,6242 12604,6221 12795,6202 12987,6185 13181,6170 13375,6157 13570,6145 13766,6135 13962,6128 14158,6122 14355,6118 14552,6116 14750,6116 14947,6118 15144,6122 15340,6128 15536,6135 15732,6145 15927,6157 16121,6170 16315,6185 16507,6202 16698,6221 16888,6242 17077,6265 17264,6290 17449,6316 17633,6344 17815,6374 17995,6406 18173,6439 18348,6474 18522,6511 18693,6550 18862,6590 19028,6632 19191,6676 19352,6721 19509,6767 19664,6815 19816,6865 19964,6916 20110,6969 20251,7022 20390,7078 20525,7134 20656,7192 20784,7251 20908,7312 21028,7373 21144,7436 21256,7500 21365,7565 21469,7631 21569,7698 21664,7766 21756,7835 21843,7904 21925,7975 22003,8046 22077,8118 22146,8191 22211,8264 22270,8338 22326,8413 22376,8488 22422,8564 22463,8640 22499,8716 22530,8793 22557,8870 22579,8947 22596,9024 22608,9102 22615,9179 22617,9257 22614,9335 25127,9360 Z"/>
   </g>
  </g>
 </g>
</svg>