<?xml version='1.0' encoding='UTF-8' standalone='no'?>
<!-- Created with Fritzing (https://fritzing.org/) -->
<svg xmlns="http://www.w3.org/2000/svg" baseProfile="tiny" height="2.63461in" version="1.2" viewBox="0 0 246.18 189.692" width="3.41916in" x="0in"  xmlns:svg="http://www.w3.org/2000/svg" y="0in">
 <g id="watermark" >
  <g >
   <g >
    <path d="M221.448,183.492c-0.604,0,-1.131,0.325,-1.422,0.809l-2.796,0l3.96,-4.071c0.146,-0.146,0.289,-0.322,0.428,-0.521c0.149,-0.222,0.228,-0.479,0.228,-0.768c0,-0.279,-0.097,-0.518,-0.287,-0.71c-0.19,-0.188,-0.444,-0.287,-0.754,-0.287l-4.636,0c-0.305,0,-0.555,0.06,-0.742,0.17c-0.219,0.13,-0.33,0.368,-0.33,0.707c0,0.329,0.111,0.562,0.33,0.692c0.188,0.111,0.438,0.168,0.742,0.168l3.148,0l-3.974,4.086c-0.146,0.147,-0.289,0.315,-0.425,0.504c-0.153,0.212,-0.23,0.472,-0.23,0.771c0,0.28,0.096,0.521,0.288,0.711c0.188,0.188,0.442,0.285,0.754,0.285l4.315,0c0.293,0.467,0.812,0.776,1.4,0.776c0.916,0,1.66,-0.744,1.66,-1.661C223.107,184.237,222.362,183.492,221.448,183.492zM221.448,185.755c-0.334,0,-0.604,-0.271,-0.604,-0.604c0,-0.333,0.27,-0.604,0.604,-0.604c0.332,0,0.604,0.271,0.604,0.604C222.051,185.486,221.78,185.755,221.448,185.755z" fill="#8C8C8C" />
    <path d="M204.505,173.45c-0.914,0,-1.659,0.745,-1.659,1.66c0,0.916,0.745,1.66,1.659,1.66s1.658,-0.744,1.658,-1.66C206.165,174.195,205.421,173.45,204.505,173.45zM204.506,175.713c-0.333,0,-0.604,-0.27,-0.604,-0.603s0.271,-0.603,0.604,-0.603c0.331,0,0.604,0.27,0.604,0.603S204.837,175.713,204.506,175.713z" fill="#8C8C8C" />
    <path d="M213.026,178.112c-0.193,-0.111,-0.439,-0.169,-0.732,-0.169l-1.465,0L210.829,175.421c0,-0.292,-0.057,-0.538,-0.166,-0.729C210.573,174.535,210.38,174.35,209.97,174.35c-0.34,0,-0.578,0.116,-0.709,0.342c-0.109,0.193,-0.167,0.438,-0.167,0.729l0,2.521l-0.481,0c-0.295,0,-0.539,0.06,-0.731,0.169c-0.228,0.129,-0.341,0.368,-0.341,0.708c0,0.412,0.185,0.603,0.341,0.692c0.192,0.111,0.438,0.168,0.731,0.168l0.481,0l0,4.362c0,0.277,0.026,0.533,0.081,0.768c0.056,0.246,0.154,0.464,0.298,0.645c0.146,0.186,0.345,0.332,0.595,0.436c0.241,0.098,0.555,0.146,0.93,0.146l0.896,0c0.292,0,0.539,-0.054,0.731,-0.166c0.154,-0.089,0.341,-0.281,0.341,-0.693c0,-0.338,-0.114,-0.578,-0.341,-0.709c-0.192,-0.109,-0.439,-0.168,-0.731,-0.168l-0.821,0c-0.138,0,-0.19,-0.019,-0.207,-0.024c-0.014,-0.034,-0.035,-0.103,-0.035,-0.231L210.831,179.68l1.465,0c0.295,0,0.541,-0.057,0.734,-0.168c0.152,-0.09,0.34,-0.28,0.34,-0.692C213.366,178.48,213.253,178.241,213.026,178.112z" fill="#8C8C8C" />
    <path d="M204.571,177.942l-1.191,0c-0.292,0,-0.538,0.059,-0.731,0.169c-0.226,0.129,-0.341,0.368,-0.341,0.708c0,0.412,0.188,0.604,0.341,0.691c0.193,0.113,0.439,0.168,0.731,0.168l0.544,0l0,5.362c0,0.293,0.057,0.539,0.167,0.73c0.131,0.227,0.367,0.341,0.708,0.341c0.411,0,0.604,-0.187,0.692,-0.341c0.111,-0.191,0.168,-0.438,0.168,-0.73L205.659,179.03c0,-0.386,-0.084,-0.656,-0.256,-0.83C205.228,178.028,204.958,177.942,204.571,177.942z" fill="#8C8C8C" />
    <path d="M200.736,178.112c-0.193,-0.111,-0.44,-0.169,-0.732,-0.169l-0.604,0c-0.25,0,-0.498,0.063,-0.734,0.187c-0.226,0.119,-0.433,0.271,-0.616,0.453l-0.644,0.604l0,-0.247c0,-0.291,-0.055,-0.538,-0.168,-0.729c-0.128,-0.228,-0.368,-0.34,-0.707,-0.34c-0.41,0,-0.604,0.184,-0.693,0.34c-0.11,0.191,-0.167,0.438,-0.167,0.729l0,4.801c-0.475,0.293,-0.791,0.816,-0.791,1.412c0,0.917,0.745,1.661,1.658,1.661c0.916,0,1.66,-0.744,1.66,-1.661c0,-0.596,-0.317,-1.119,-0.792,-1.412l0,-2.21l1.738,-1.564c0.1,-0.09,0.199,-0.164,0.297,-0.217c0.084,-0.045,0.174,-0.067,0.274,-0.067l0.288,0c0.292,0,0.539,-0.056,0.732,-0.169c0.155,-0.088,0.339,-0.279,0.339,-0.691C201.076,178.48,200.961,178.241,200.736,178.112zM196.537,185.755c-0.332,0,-0.603,-0.271,-0.603,-0.604c0,-0.333,0.271,-0.604,0.603,-0.604c0.333,0,0.604,0.271,0.604,0.604C197.141,185.486,196.87,185.755,196.537,185.755z" fill="#8C8C8C" />
    <path d="M194.02,174.593c-0.193,-0.111,-0.44,-0.167,-0.731,-0.167l-0.59,0c-0.2,0,-0.389,0.004,-0.562,0.016c-0.176,0.009,-0.345,0.035,-0.506,0.07c-0.168,0.041,-0.336,0.109,-0.496,0.202c-0.158,0.093,-0.319,0.222,-0.48,0.382c-0.334,0.314,-0.554,0.656,-0.652,1.017c-0.094,0.348,-0.143,0.735,-0.143,1.151l0,0.678l-0.483,0c-0.292,0,-0.539,0.059,-0.73,0.169c-0.227,0.13,-0.342,0.369,-0.342,0.708c0,0.412,0.185,0.604,0.341,0.693c0.191,0.111,0.438,0.166,0.73,0.166l0.483,0l0,5.362c0,0.293,0.057,0.539,0.167,0.73c0.13,0.227,0.367,0.341,0.708,0.341c0.411,0,0.603,-0.187,0.692,-0.341c0.111,-0.191,0.168,-0.438,0.168,-0.73l0,-5.36l0.92,0c0.293,0,0.54,-0.057,0.732,-0.168c0.155,-0.09,0.34,-0.28,0.34,-0.692c0,-0.34,-0.114,-0.579,-0.34,-0.708c-0.189,-0.111,-0.436,-0.17,-0.729,-0.17l-0.92,0l0,-0.678c0,-0.218,0.019,-0.41,0.056,-0.571c0.032,-0.141,0.103,-0.261,0.218,-0.367l0.002,-0.004l0.002,-0.002c0.082,-0.082,0.176,-0.126,0.29,-0.136c0.15,-0.015,0.339,-0.022,0.564,-0.022l0.56,0c0.291,0,0.539,-0.058,0.731,-0.168c0.154,-0.088,0.339,-0.281,0.339,-0.693C194.36,174.962,194.245,174.723,194.02,174.593z" fill="#8C8C8C" />
    <path d="M246.013,178.21c-0.089,-0.156,-0.282,-0.34,-0.693,-0.34c-0.339,0,-0.578,0.113,-0.707,0.34c-0.078,0.133,-0.127,0.293,-0.152,0.477l-0.021,-0.021c-0.216,-0.236,-0.466,-0.42,-0.747,-0.539c-0.277,-0.119,-0.563,-0.183,-0.849,-0.183l-0.709,0c-0.249,0,-0.466,0.015,-0.64,0.041c-0.182,0.026,-0.352,0.074,-0.51,0.14c-0.158,0.066,-0.313,0.15,-0.459,0.254c-0.139,0.097,-0.303,0.226,-0.486,0.377c-0.188,0.156,-0.342,0.302,-0.463,0.434c-0.127,0.141,-0.23,0.293,-0.306,0.455c-0.069,0.16,-0.122,0.337,-0.147,0.523c-0.026,0.178,-0.041,0.391,-0.041,0.631l0,2.386c0,0.24,0.015,0.451,0.041,0.631c0.025,0.188,0.078,0.361,0.147,0.521c0.074,0.164,0.179,0.318,0.306,0.457c0.119,0.129,0.274,0.274,0.463,0.433c0.186,0.153,0.35,0.28,0.486,0.379c0.146,0.103,0.299,0.188,0.459,0.254c0.158,0.065,0.329,0.112,0.51,0.14c0.174,0.026,0.389,0.039,0.64,0.039l0.709,0c0.298,0,0.591,-0.066,0.87,-0.199c0.244,-0.114,0.492,-0.291,0.73,-0.523l0,1.434c0,0.18,-0.025,0.334,-0.072,0.465c-0.043,0.119,-0.159,0.258,-0.344,0.406c-0.154,0.127,-0.309,0.217,-0.457,0.264c-0.15,0.049,-0.341,0.074,-0.563,0.074l-2.203,0c-0.293,0,-0.538,0.055,-0.732,0.166c-0.152,0.088,-0.34,0.282,-0.34,0.692c0,0.341,0.115,0.579,0.34,0.71c0.194,0.109,0.439,0.167,0.732,0.167l2.326,0c0.247,0,0.463,-0.015,0.638,-0.041c0.179,-0.026,0.351,-0.073,0.513,-0.14c0.153,-0.064,0.31,-0.15,0.455,-0.254c0.143,-0.101,0.305,-0.227,0.487,-0.379c0.185,-0.153,0.343,-0.299,0.463,-0.431c0.128,-0.141,0.229,-0.294,0.304,-0.456c0.071,-0.162,0.123,-0.338,0.148,-0.523c0.025,-0.182,0.041,-0.393,0.041,-0.631l0,-7.898C246.18,178.648,246.126,178.401,246.013,178.21zM244.444,182.67c0,0.188,-0.062,0.35,-0.188,0.49c-0.15,0.172,-0.394,0.403,-0.716,0.686l-0.002,0.003l-0.002,0.004c-0.139,0.13,-0.291,0.237,-0.453,0.325c-0.148,0.082,-0.325,0.121,-0.526,0.121L242.256,184.299c-0.222,0,-0.41,-0.021,-0.563,-0.072c-0.148,-0.049,-0.301,-0.137,-0.453,-0.264c-0.231,-0.186,-0.315,-0.322,-0.346,-0.404c-0.049,-0.131,-0.072,-0.285,-0.072,-0.465l0,-2.206c0,-0.18,0.023,-0.336,0.072,-0.467c0.029,-0.082,0.113,-0.217,0.346,-0.403c0.152,-0.127,0.305,-0.216,0.453,-0.265c0.153,-0.049,0.342,-0.072,0.563,-0.072l0.301,0c0.212,0,0.388,0.037,0.526,0.113c0.152,0.082,0.308,0.191,0.457,0.324c0.322,0.293,0.564,0.529,0.716,0.7c0.128,0.146,0.188,0.304,0.188,0.492L244.444,182.67z" fill="#8C8C8C" />
    <path d="M226.034,173.45c-0.914,0,-1.66,0.745,-1.66,1.66c0,0.916,0.746,1.66,1.66,1.66s1.66,-0.744,1.66,-1.66C227.694,174.195,226.948,173.45,226.034,173.45zM226.034,175.713c-0.332,0,-0.604,-0.27,-0.604,-0.603s0.271,-0.603,0.604,-0.603s0.604,0.27,0.604,0.603C226.638,175.443,226.366,175.713,226.034,175.713z" fill="#8C8C8C" />
    <path d="M236.72,183.718l-0.107,-3.419c-0.011,-0.178,-0.021,-0.338,-0.031,-0.489c-0.01,-0.162,-0.037,-0.322,-0.082,-0.476c-0.045,-0.158,-0.11,-0.309,-0.198,-0.453c-0.093,-0.146,-0.216,-0.289,-0.37,-0.42c-0.225,-0.192,-0.443,-0.334,-0.646,-0.416c-0.207,-0.084,-0.461,-0.127,-0.754,-0.127l-1.012,0c-0.259,0,-0.501,0.058,-0.716,0.164c-0.197,0.098,-0.39,0.203,-0.572,0.315l-0.003,0.002l-0.003,0.003l-0.837,0.555l0,-0.041c0,-0.291,-0.057,-0.539,-0.168,-0.733c-0.129,-0.226,-0.367,-0.339,-0.707,-0.339c-0.411,0,-0.604,0.185,-0.693,0.339c-0.109,0.194,-0.168,0.438,-0.168,0.733l0,6.099c0,0.295,0.059,0.539,0.168,0.734c0.09,0.153,0.282,0.338,0.693,0.338c0.34,0,0.578,-0.114,0.707,-0.338c0.111,-0.195,0.168,-0.439,0.168,-0.734L231.389,180.98l1.953,-1.215c0.04,-0.024,0.082,-0.048,0.121,-0.063c0.031,-0.016,0.07,-0.025,0.115,-0.031c0.049,-0.012,0.117,-0.016,0.195,-0.016l0.362,0c0.188,0,0.334,0.021,0.435,0.059c0.082,0.029,0.143,0.076,0.18,0.143c0.05,0.078,0.08,0.18,0.098,0.303c0.02,0.139,0.034,0.309,0.045,0.504l0.096,3.097c-0.457,0.297,-0.762,0.811,-0.762,1.394c0,0.917,0.746,1.661,1.66,1.661c0.916,0,1.66,-0.744,1.66,-1.661C237.546,184.543,237.213,184.005,236.72,183.718zM235.886,185.755c-0.334,0,-0.602,-0.271,-0.602,-0.604c0,-0.333,0.268,-0.604,0.602,-0.604c0.333,0,0.604,0.271,0.604,0.604C236.491,185.486,236.219,185.755,235.886,185.755z" fill="#8C8C8C" />
    <path d="M226.097,177.942l-1.193,0c-0.293,0,-0.539,0.059,-0.731,0.169c-0.226,0.129,-0.341,0.368,-0.341,0.708c0,0.412,0.186,0.604,0.341,0.691c0.192,0.113,0.438,0.168,0.731,0.168l0.545,0l0,5.362c0,0.293,0.055,0.539,0.168,0.73c0.127,0.227,0.365,0.341,0.707,0.341c0.41,0,0.604,-0.187,0.691,-0.341c0.111,-0.191,0.17,-0.438,0.17,-0.73L227.185,179.03c0,-0.386,-0.085,-0.656,-0.259,-0.83C226.754,178.028,226.481,177.942,226.097,177.942z" fill="#8C8C8C" />
   </g>
  </g>
 </g>
 <g partID="18767860">
  <g transform="translate(191.699,57.3834)">
   <g id="schematic">
    <g>
     <path d="M13.5,14.966L9.9,14.966c-0.193,0,-0.35,-0.156,-0.35,-0.35s0.156,-0.35,0.35,-0.35L13.5,14.266c0.193,0,0.35,0.156,0.35,0.35S13.694,14.966,13.5,14.966z"/>
    </g>
    <g>
     <path d="M9.9,14.966L6.3,14.966c-0.193,0,-0.35,-0.156,-0.35,-0.35s0.157,-0.35,0.35,-0.35l3.6,0c0.193,0,0.35,0.156,0.35,0.35S10.093,14.966,9.9,14.966z"/>
    </g>
    <g>
     <polygon fill="#FFFFFF" points="9.9,14.616,6.3,7.416,9.9,7.416,13.5,7.416"/>
     <path d="M9.9,15.398L5.734,7.066l8.333,0L9.9,15.398zM6.866,7.766L9.9,13.834l3.034,-6.068L6.866,7.766z"/>
    </g>
    <g>
     <path d="M9.9,14.841c-0.124,0,-0.225,-0.101,-0.225,-0.225l0,-7.2c0,-0.124,0.101,-0.225,0.225,-0.225s0.225,0.101,0.225,0.225l0,7.2C10.124,14.74,10.024,14.841,9.9,14.841z"/>
    </g>
    <g>
     <path d="M1.8,12.141c-0.058,0,-0.115,-0.021,-0.159,-0.065c-0.088,-0.088,-0.088,-0.23,0,-0.318l2.34,-2.341c0.088,-0.088,0.23,-0.088,0.318,0s0.088,0.23,0,0.318l-2.34,2.341C1.915,12.12,1.858,12.141,1.8,12.141z"/>
    </g>
    <g>
     <path d="M2.16,15.381c-0.058,0,-0.115,-0.021,-0.159,-0.065c-0.088,-0.088,-0.088,-0.23,0,-0.318l2.34,-2.34c0.088,-0.088,0.23,-0.088,0.318,0s0.088,0.23,0,0.318l-2.34,2.34C2.276,15.359,2.218,15.381,2.16,15.381z"/>
    </g>
    <g id="connector0pin">
     <path d="M9.9,22.166c-0.193,0,-0.35,-0.156,-0.35,-0.35l0,-7.2c0,-0.193,0.156,-0.35,0.35,-0.35s0.35,0.156,0.35,0.35l0,7.2C10.249,22.01,10.093,22.166,9.9,22.166z" fill="#787878"/>
    </g>
    <g id="connector0terminal">
     <rect fill="none" height="0.001" width="0.001" x="9.9" y="21.816"/>
    </g>
    <g transform="matrix(1, 0, 0, 1, 3.429, 6.4262)">
     <g>
      <g transform="rotate(270)">
       <g>
        <g enable-background="new    ">
         <path d="M-11.647,5.54l-0.891,0L-12.538,5.388l0.342,-0.372c0.049,-0.053,0.093,-0.101,0.131,-0.145s0.071,-0.086,0.099,-0.128c0.026,-0.042,0.047,-0.084,0.062,-0.125c0.015,-0.043,0.021,-0.088,0.021,-0.138c0,-0.038,-0.005,-0.072,-0.017,-0.102s-0.027,-0.054,-0.047,-0.075c-0.021,-0.02,-0.045,-0.035,-0.073,-0.046s-0.06,-0.016,-0.094,-0.016c-0.062,0,-0.118,0.013,-0.167,0.038c-0.051,0.024,-0.098,0.057,-0.143,0.096l-0.1,-0.116c0.025,-0.023,0.055,-0.046,0.084,-0.065c0.029,-0.021,0.063,-0.039,0.097,-0.054s0.071,-0.026,0.109,-0.036c0.038,-0.008,0.079,-0.013,0.121,-0.013c0.063,0,0.119,0.009,0.169,0.026c0.051,0.018,0.094,0.043,0.129,0.076c0.035,0.032,0.063,0.072,0.082,0.119c0.019,0.048,0.028,0.101,0.028,0.16c0,0.056,-0.009,0.108,-0.026,0.158c-0.017,0.05,-0.041,0.1,-0.07,0.148c-0.031,0.048,-0.066,0.097,-0.109,0.146c-0.041,0.049,-0.087,0.1,-0.136,0.152L-12.32,5.37l0,0.008l0.673,0L-11.647,5.54z" fill="#787878"/>
        </g>
       </g>
      </g>
     </g>
    </g>
    <g id="connector1pin">
     <path d="M9.9,7.766c-0.193,0,-0.35,-0.157,-0.35,-0.35l0,-7.2c0,-0.193,0.156,-0.35,0.35,-0.35s0.35,0.157,0.35,0.35l0,7.2C10.249,7.609,10.093,7.766,9.9,7.766z" fill="#787878"/>
    </g>
    <g id="connector1terminal">
     <polygon fill="none" points="9.9,0.216,9.901,0.216,9.901,0.216"/>
    </g>
    <g transform="matrix(1, 0, 0, 1, 3.429, 1.3462)">
     <g>
      <g transform="rotate(270)">
       <g>
        <g enable-background="new    ">
         <path d="M-2.616,5.54l-0.172,0L-2.788,4.648c0,-0.028,0,-0.058,0,-0.09s0.001,-0.063,0.002,-0.095c0.001,-0.032,0.002,-0.063,0.003,-0.092c0.001,-0.028,0.002,-0.054,0.002,-0.076c-0.011,0.012,-0.021,0.021,-0.029,0.03s-0.017,0.017,-0.026,0.024s-0.018,0.016,-0.028,0.025c-0.01,0.008,-0.021,0.019,-0.035,0.03l-0.145,0.118l-0.094,-0.12l0.374,-0.292l0.146,0L-2.618,5.54z" fill="#787878"/>
        </g>
       </g>
      </g>
     </g>
    </g>
    <g>
     <path d="M0.18,13.536l1.08,-2.521l1.44,1.438L0.18,13.536z"/>
    </g>
    <g>
     <path d="M0.54,16.776l1.08,-2.521l1.438,1.438L0.54,16.776z"/>
    </g>
   </g>
  </g>
 </g>
 <g partID="18757880">
  <g transform="translate(172.381,82.4264)">
   <g id="schematic">
    <line fill="none" stroke="#000000" stroke-linecap="round" stroke-width="0.7" x1="19.8" x2="21.6" y1="11.159" y2="11.159"/>
    <line fdata-push-off="transform:translate(0 0)" fdata-push-on="transform:translate(7.2 11.159) rotate(16.6) translate(-7.2 -11.159)" fill="none" fpush="push" stroke="#000000" stroke-linecap="round" stroke-width="0.7" x1="7.2" x2="19.8" y1="11.159" y2="7.559"/>
    <circle cx="7.2" cy="11.159" fill="none" r="0.36" stroke="#000000" stroke-width="0.7"/>
    <circle cx="21.6" cy="11.159" fill="none" r="0.36" stroke="#000000" stroke-width="0.7"/>
    <g transform="matrix(1, 0, 0, 1, 2.7612, 2.718)">
     <text fill="#787878" font-family="'DroidSans'" font-size="2">1</text>
    </g>
    <g transform="matrix(1, 0, 0, 1, 24.604, 2.718)">
     <text fill="#787878" font-family="'DroidSans'" font-size="2">2</text>
    </g>
    <g transform="matrix(1, 0, 0, 1, 2.7612, 16.843)">
     <text fill="#787878" font-family="'DroidSans'" font-size="2">1</text>
    </g>
    <g transform="matrix(1, 0, 0, 1, 24.604, 16.843)">
     <text fill="#787878" font-family="'DroidSans'" font-size="2">2</text>
    </g>
    <line fill="none" stroke="#000000" stroke-linecap="round" stroke-width="0.7" x1="21.6" x2="21.6" y1="3.96" y2="18.359"/>
    <line fill="none" stroke="#000000" stroke-linecap="round" stroke-width="0.7" x1="7.2" x2="7.2" y1="3.96" y2="18.359"/>
    <line fill="none" id="connector3pin" stroke="#555555" stroke-linecap="round" stroke-width="0.7" x1="0.322" x2="7.2" y1="18.359" y2="18.359"/>
    <line fill="none" id="connector2pin" stroke="#555555" stroke-linecap="round" stroke-width="0.7" x1="0.322" x2="7.2" y1="3.96" y2="3.96"/>
    <g fill="none" id="connector2terminal" points="0.822,4.281,0.837,3.64,0,3.64,0,4.281"/>
    <g fill="none" id="connector3terminal" points="0.822,18.694,0.837,18.053,0,18.053,0,18.694"/>
    <line fill="none" id="connector1pin" stroke="#555555" stroke-linecap="round" stroke-width="0.7" x1="28.451" x2="21.6" y1="18.359" y2="18.359"/>
    <g fill="none" height="0.672" id="connector1terminal" width="0.994" x="27.806" y="18.006"/>
    <g fill="none" height="0.719" id="connector0terminal" width="1.088" x="27.712" y="3.6"/>
    <line fill="none" id="connector0pin" stroke="#555555" stroke-linecap="round" stroke-width="0.7" x1="28.451" x2="21.6" y1="3.96" y2="3.96"/>
   </g>
  </g>
 </g>
 <g partID="18757910">
  <g transform="translate(172.381,111.226)">
   <g id="schematic">
    <line fill="none" stroke="#000000" stroke-linecap="round" stroke-width="0.7" x1="19.8" x2="21.6" y1="11.159" y2="11.159"/>
    <line fdata-push-off="transform:translate(0 0)" fdata-push-on="transform:translate(7.2 11.159) rotate(16.6) translate(-7.2 -11.159)" fill="none" fpush="push" stroke="#000000" stroke-linecap="round" stroke-width="0.7" x1="7.2" x2="19.8" y1="11.159" y2="7.559"/>
    <circle cx="7.2" cy="11.159" fill="none" r="0.36" stroke="#000000" stroke-width="0.7"/>
    <circle cx="21.6" cy="11.159" fill="none" r="0.36" stroke="#000000" stroke-width="0.7"/>
    <g transform="matrix(1, 0, 0, 1, 2.7612, 2.718)">
     <text fill="#787878" font-family="'DroidSans'" font-size="2">1</text>
    </g>
    <g transform="matrix(1, 0, 0, 1, 24.604, 2.718)">
     <text fill="#787878" font-family="'DroidSans'" font-size="2">2</text>
    </g>
    <g transform="matrix(1, 0, 0, 1, 2.7612, 16.843)">
     <text fill="#787878" font-family="'DroidSans'" font-size="2">1</text>
    </g>
    <g transform="matrix(1, 0, 0, 1, 24.604, 16.843)">
     <text fill="#787878" font-family="'DroidSans'" font-size="2">2</text>
    </g>
    <line fill="none" stroke="#000000" stroke-linecap="round" stroke-width="0.7" x1="21.6" x2="21.6" y1="3.96" y2="18.359"/>
    <line fill="none" stroke="#000000" stroke-linecap="round" stroke-width="0.7" x1="7.2" x2="7.2" y1="3.96" y2="18.359"/>
    <line fill="none" id="connector3pin" stroke="#555555" stroke-linecap="round" stroke-width="0.7" x1="0.322" x2="7.2" y1="18.359" y2="18.359"/>
    <line fill="none" id="connector2pin" stroke="#555555" stroke-linecap="round" stroke-width="0.7" x1="0.322" x2="7.2" y1="3.96" y2="3.96"/>
    <g fill="none" id="connector2terminal" points="0.822,4.281,0.837,3.64,0,3.64,0,4.281"/>
    <g fill="none" id="connector3terminal" points="0.822,18.694,0.837,18.053,0,18.053,0,18.694"/>
    <line fill="none" id="connector1pin" stroke="#555555" stroke-linecap="round" stroke-width="0.7" x1="28.451" x2="21.6" y1="18.359" y2="18.359"/>
    <g fill="none" height="0.672" id="connector1terminal" width="0.994" x="27.806" y="18.006"/>
    <g fill="none" height="0.719" id="connector0terminal" width="1.088" x="27.712" y="3.6"/>
    <line fill="none" id="connector0pin" stroke="#555555" stroke-linecap="round" stroke-width="0.7" x1="28.451" x2="21.6" y1="3.96" y2="3.96"/>
   </g>
  </g>
 </g>
 <g partID="17203410">
  <g transform="translate(114.85,40.1038)">
   <g id="schematic" >
    <line class="other" stroke="#000000" stroke-linecap="round" stroke-width="0.432002" x1="7.55002" x2="8.63003"  y1="3.096" y2="0.216"/>
    <line class="other" stroke="#000000" stroke-linecap="round" stroke-width="0.432002" x1="8.63003" x2="10.43"  y1="0.216" y2="5.976"/>
    <line class="other" stroke="#000000" stroke-linecap="round" stroke-width="0.432002" x1="10.43" x2="12.23"  y1="5.976" y2="0.216"/>
    <line class="other" stroke="#000000" stroke-linecap="round" stroke-width="0.432002" x1="12.23" x2="14.03"  y1="0.216" y2="5.976"/>
    <line class="other" stroke="#000000" stroke-linecap="round" stroke-width="0.432002" x1="14.03" x2="15.8301"  y1="5.976" y2="0.216"/>
    <line class="other" stroke="#000000" stroke-linecap="round" stroke-width="0.432002" x1="15.8301" x2="17.6301"  y1="0.216" y2="5.976"/>
    <line class="other" stroke="#000000" stroke-linecap="round" stroke-width="0.432002" x1="17.6301" x2="19.4301"  y1="5.976" y2="0.216"/>
    <line class="other" stroke="#000000" stroke-linecap="round" stroke-width="0.432002" x1="19.4301" x2="21.2301"  y1="0.216" y2="5.976"/>
    <line class="other" stroke="#000000" stroke-linecap="round" stroke-width="0.432002" x1="21.2301" x2="21.9501"  y1="5.976" y2="3.096"/>
    <line class="pin" connectorname="2" id="connector1pin" stroke="#787878" stroke-linecap="round" stroke-width="0.700001" x1="29.1502" x2="21.9501"  y1="3.096" y2="3.096"/>
    <g class="terminal" fill="none" height="0.000283465" id="connector1terminal" stroke="none" stroke-width="0" width="0.000283466" x="29.1502"  y="3.096"/>
    <text class="text" fill="#8c8c8c" font-family="'Droid Sans'" font-size="2.50001" stroke="none" stroke-width="0" text-anchor="middle" x="25.5501"  y="2.046">2</text>
    <line class="pin" connectorname="1" id="connector0pin" stroke="#787878" stroke-linecap="round" stroke-width="0.700001" x1="0.350001" x2="7.55002"  y1="3.096" y2="3.096"/>
    <g class="terminal" fill="none" height="0.000283465" id="connector0terminal" stroke="none" stroke-width="0" width="0.000283466" x="0.350001"  y="3.096"/>
    <text class="text" fill="#8c8c8c" font-family="'Droid Sans'" font-size="2.50001" stroke="none" stroke-width="0" text-anchor="middle" x="3.95001"  y="2.046">1</text>
   </g>
  </g>
 </g>
 <g partID="18389240">
  <g id="schematic">
   <rect class="interior rect" fill="#FFFFFF" height="135.9" stroke="#000000" stroke-linecap="round" stroke-width="0.9" width="78.3" x="14.85" y="14.85"/>
   <line class="pin" fill="none" id="connector61pin" stroke="#787878" stroke-linecap="round" stroke-width="0.699999" x1="93.2499" x2="107.65" y1="28.8" y2="28.8"/>
   <text class="text" fill="#8c8c8c" font-family="'Droid Sans'" font-size="3.49999" stroke="none" stroke-width="0" text-anchor="end" x="91.8499" y="29.4999">D0/RX</text>
   <g class="terminal" fill="none" height="0.699999" id="connector61terminal" stroke="none" stroke-width="0" width="0.699999" x="107.65" y="28.4499"/>
   <line class="pin" fill="none" id="connector62pin" stroke="#787878" stroke-linecap="round" stroke-width="0.699999" x1="93.2499" x2="107.65" y1="36" y2="36"/>
   <text class="text" fill="#8c8c8c" font-family="'Droid Sans'" font-size="3.49999" stroke="none" stroke-width="0" text-anchor="end" x="91.8499" y="36.6999">D1/TX</text>
   <g class="terminal" fill="none" height="0.699999" id="connector62terminal" stroke="none" stroke-width="0" width="0.699999" x="107.65" y="35.6499"/>
   <line class="pin" fill="none" id="connector63pin" stroke="#787878" stroke-linecap="round" stroke-width="0.699999" x1="93.2499" x2="107.65" y1="43.2" y2="43.2"/>
   <text class="text" fill="#8c8c8c" font-family="'Droid Sans'" font-size="3.49999" stroke="none" stroke-width="0" text-anchor="end" x="91.8499" y="43.8999">D2</text>
   <g class="terminal" fill="none" height="0.699999" id="connector63terminal" stroke="none" stroke-width="0" width="0.699999" x="107.65" y="42.8499"/>
   <line class="pin" fill="none" id="connector64pin" stroke="#787878" stroke-linecap="round" stroke-width="0.699999" x1="93.2499" x2="107.65" y1="50.4" y2="50.4"/>
   <text class="text" fill="#8c8c8c" font-family="'Droid Sans'" font-size="3.49999" stroke="none" stroke-width="0" text-anchor="end" x="91.8499" y="51.0999">D3 PWM</text>
   <g class="terminal" fill="none" height="0.699999" id="connector64terminal" stroke="none" stroke-width="0" width="0.699999" x="107.65" y="50.0499"/>
   <line class="pin" fill="none" id="connector65pin" stroke="#787878" stroke-linecap="round" stroke-width="0.699999" x1="93.2499" x2="107.65" y1="57.6" y2="57.6"/>
   <text class="text" fill="#8c8c8c" font-family="'Droid Sans'" font-size="3.49999" stroke="none" stroke-width="0" text-anchor="end" x="91.8499" y="58.2999">D4</text>
   <g class="terminal" fill="none" height="0.699999" id="connector65terminal" stroke="none" stroke-width="0" width="0.699999" x="107.65" y="57.2499"/>
   <line class="pin" fill="none" id="connector66pin" stroke="#787878" stroke-linecap="round" stroke-width="0.699999" x1="93.2499" x2="107.65" y1="64.8" y2="64.8"/>
   <text class="text" fill="#8c8c8c" font-family="'Droid Sans'" font-size="3.49999" stroke="none" stroke-width="0" text-anchor="end" x="91.8499" y="65.4999">D5 PWM</text>
   <g class="terminal" fill="none" height="0.699999" id="connector66terminal" stroke="none" stroke-width="0" width="0.699999" x="107.65" y="64.4499"/>
   <line class="pin" fill="none" id="connector67pin" stroke="#787878" stroke-linecap="round" stroke-width="0.699999" x1="93.2499" x2="107.65" y1="72" y2="72"/>
   <text class="text" fill="#8c8c8c" font-family="'Droid Sans'" font-size="3.49999" stroke="none" stroke-width="0" text-anchor="end" x="91.8499" y="72.6999">D6 PWM</text>
   <g class="terminal" fill="none" height="0.699999" id="connector67terminal" stroke="none" stroke-width="0" width="0.699999" x="107.65" y="71.6499"/>
   <line class="pin" fill="none" id="connector68pin" stroke="#787878" stroke-linecap="round" stroke-width="0.699999" x1="93.2499" x2="107.65" y1="79.2" y2="79.2"/>
   <text class="text" fill="#8c8c8c" font-family="'Droid Sans'" font-size="3.49999" stroke="none" stroke-width="0" text-anchor="end" x="91.8499" y="79.8999">D7</text>
   <g class="terminal" fill="none" height="0.699999" id="connector68terminal" stroke="none" stroke-width="0" width="0.699999" x="107.65" y="78.8499"/>
   <line class="pin" fill="none" id="connector51pin" stroke="#787878" stroke-linecap="round" stroke-width="0.699999" x1="93.2499" x2="107.65" y1="86.4" y2="86.4"/>
   <text class="text" fill="#8c8c8c" font-family="'Droid Sans'" font-size="3.49999" stroke="none" stroke-width="0" text-anchor="end" x="91.8499" y="87.0999">D8</text>
   <g class="terminal" fill="none" height="0.699999" id="connector51terminal" stroke="none" stroke-width="0" width="0.699999" x="107.65" y="86.0499"/>
   <line class="pin" fill="none" id="connector52pin" stroke="#787878" stroke-linecap="round" stroke-width="0.699999" x1="93.2499" x2="107.65" y1="93.6" y2="93.6"/>
   <text class="text" fill="#8c8c8c" font-family="'Droid Sans'" font-size="3.49999" stroke="none" stroke-width="0" text-anchor="end" x="91.8499" y="94.2999">D9 PWM</text>
   <g class="terminal" fill="none" height="0.699999" id="connector52terminal" stroke="none" stroke-width="0" width="0.699999" x="107.65" y="93.2499"/>
   <line class="pin" fill="none" id="connector53pin" stroke="#787878" stroke-linecap="round" stroke-width="0.699999" x1="93.2499" x2="107.65" y1="100.8" y2="100.8"/>
   <text class="text" fill="#8c8c8c" font-family="'Droid Sans'" font-size="3.49999" stroke="none" stroke-width="0" text-anchor="end" x="91.8499" y="101.5">D10 PWM/SS</text>
   <g class="terminal" fill="none" height="0.699999" id="connector53terminal" stroke="none" stroke-width="0" width="0.699999" x="107.65" y="100.45"/>
   <line class="pin" fill="none" id="connector54pin" stroke="#787878" stroke-linecap="round" stroke-width="0.699999" x1="93.2499" x2="107.65" y1="108" y2="108"/>
   <text class="text" fill="#8c8c8c" font-family="'Droid Sans'" font-size="3.49999" stroke="none" stroke-width="0" text-anchor="end" x="91.8499" y="108.7">D11 PWM/MOSI</text>
   <g class="terminal" fill="none" height="0.699999" id="connector54terminal" stroke="none" stroke-width="0" width="0.699999" x="107.65" y="107.65"/>
   <line class="pin" fill="none" id="connector55pin" stroke="#787878" stroke-linecap="round" stroke-width="0.699999" x1="93.2499" x2="107.65" y1="115.2" y2="115.2"/>
   <text class="text" fill="#8c8c8c" font-family="'Droid Sans'" font-size="3.49999" stroke="none" stroke-width="0" text-anchor="end" x="91.8499" y="115.9">D12/MISO</text>
   <g class="terminal" fill="none" height="0.699999" id="connector55terminal" stroke="none" stroke-width="0" width="0.699999" x="107.65" y="114.85"/>
   <line class="pin" fill="none" id="connector41pin" stroke="none" stroke-linecap="round" stroke-width="0" x1="93.2499" x2="107.65" y1="122.4" y2="122.4"/>
   <rect class="terminal" fill="none" height="0.699999" id="connector41terminal" stroke="none" stroke-width="0" width="0.699999" x="107.65" y="122.05"/>
   <line class="pin" fill="none" id="connector56pin" stroke="#787878" stroke-linecap="round" stroke-width="0.699999" x1="93.2499" x2="107.65" y1="122.4" y2="122.4"/>
   <text class="text" fill="#8c8c8c" font-family="'Droid Sans'" font-size="3.49999" stroke="none" stroke-width="0" text-anchor="end" x="91.8499" y="123.1">D13/SCK</text>
   <g class="terminal" fill="none" height="0.699999" id="connector56terminal" stroke="none" stroke-width="0" width="0.699999" x="107.65" y="122.05"/>
   <line class="pin" fill="none" id="connector43pin" stroke="none" stroke-linecap="round" stroke-width="0" x1="0.349999" x2="14.75" y1="28.8" y2="28.8"/>
   <rect class="terminal" fill="none" height="0.699999" id="connector43terminal" stroke="none" stroke-width="0" width="0.699999" x="-0.349999" y="28.4499"/>
   <line class="pin" fill="none" id="connector85pin" stroke="#787878" stroke-linecap="round" stroke-width="0.699999" x1="0.349999" x2="14.75" y1="28.8" y2="28.8"/>
   <text class="text" fill="#8c8c8c" font-family="'Droid Sans'" font-size="3.49999" stroke="none" stroke-width="0" text-anchor="start" x="16.15" y="29.4999">RESET</text>
   <g class="terminal" fill="none" height="0.699999" id="connector85terminal" stroke="none" stroke-width="0" width="0.699999" x="-0.349999" y="28.4499"/>
   <line class="pin" fill="none" id="connector49pin" stroke="#787878" stroke-linecap="round" stroke-width="0.699999" x1="0.349999" x2="14.75" y1="36" y2="36"/>
   <text class="text" fill="#8c8c8c" font-family="'Droid Sans'" font-size="3.49999" stroke="none" stroke-width="0" text-anchor="start" x="16.15" y="36.6999">RESET2</text>
   <rect class="terminal" fill="none" height="0.699999" id="connector49terminal" stroke="none" stroke-width="0" width="0.699999" x="-0.349999" y="35.6499"/>
   <line class="pin" fill="none" id="connector58pin" stroke="#787878" stroke-linecap="round" stroke-width="0.699999" x1="0.349999" x2="14.75" y1="43.2" y2="43.2"/>
   <text class="text" fill="#8c8c8c" font-family="'Droid Sans'" font-size="3.49999" stroke="none" stroke-width="0" text-anchor="start" x="16.15" y="43.8999">AREF</text>
   <g class="terminal" fill="none" height="0.699999" id="connector58terminal" stroke="none" stroke-width="0" width="0.699999" x="-0.349999" y="42.8499"/>
   <line class="pin" fill="none" id="connector84pin" stroke="#787878" stroke-linecap="round" stroke-width="0.699999" x1="0.349999" x2="14.75" y1="50.4" y2="50.4"/>
   <text class="text" fill="#8c8c8c" font-family="'Droid Sans'" font-size="3.49999" stroke="none" stroke-width="0" text-anchor="start" x="16.15" y="51.0999">ioref</text>
   <g class="terminal" fill="none" height="0.699999" id="connector84terminal" stroke="none" stroke-width="0" width="0.699999" x="-0.349999" y="50.0499"/>
   <line class="pin" fill="none" id="connector0pin" stroke="#787878" stroke-linecap="round" stroke-width="0.699999" x1="0.349999" x2="14.75" y1="64.8" y2="64.8"/>
   <text class="text" fill="#8c8c8c" font-family="'Droid Sans'" font-size="3.49999" stroke="none" stroke-width="0" text-anchor="start" x="16.15" y="65.4999">A0</text>
   <g class="terminal" fill="none" height="0.699999" id="connector0terminal" stroke="none" stroke-width="0" width="0.699999" x="-0.349999" y="64.4499"/>
   <line class="pin" fill="none" id="connector1pin" stroke="#787878" stroke-linecap="round" stroke-width="0.699999" x1="0.349999" x2="14.75" y1="72" y2="72"/>
   <text class="text" fill="#8c8c8c" font-family="'Droid Sans'" font-size="3.49999" stroke="none" stroke-width="0" text-anchor="start" x="16.15" y="72.6999">A1</text>
   <g class="terminal" fill="none" height="0.699999" id="connector1terminal" stroke="none" stroke-width="0" width="0.699999" x="-0.349999" y="71.6499"/>
   <line class="pin" fill="none" id="connector2pin" stroke="#787878" stroke-linecap="round" stroke-width="0.699999" x1="0.349999" x2="14.75" y1="79.2" y2="79.2"/>
   <text class="text" fill="#8c8c8c" font-family="'Droid Sans'" font-size="3.49999" stroke="none" stroke-width="0" text-anchor="start" x="16.15" y="79.8999">A2</text>
   <g class="terminal" fill="none" height="0.699999" id="connector2terminal" stroke="none" stroke-width="0" width="0.699999" x="-0.349999" y="78.8499"/>
   <line class="pin" fill="none" id="connector3pin" stroke="#787878" stroke-linecap="round" stroke-width="0.699999" x1="0.349999" x2="14.75" y1="86.4" y2="86.4"/>
   <text class="text" fill="#8c8c8c" font-family="'Droid Sans'" font-size="3.49999" stroke="none" stroke-width="0" text-anchor="start" x="16.15" y="87.0999">A3</text>
   <g class="terminal" fill="none" height="0.699999" id="connector3terminal" stroke="none" stroke-width="0" width="0.699999" x="-0.349999" y="86.0499"/>
   <line class="pin" fill="none" id="connector48pin" stroke="none" stroke-linecap="round" stroke-width="0" x1="0.349999" x2="14.75" y1="93.6" y2="93.6"/>
   <rect class="terminal" fill="none" height="0.699999" id="connector48terminal" stroke="none" stroke-width="0" width="0.699999" x="-0.349999" y="93.2499"/>
   <line class="pin" fill="none" id="connector45pin" stroke="none" stroke-linecap="round" stroke-width="0" x1="0.349999" x2="14.75" y1="93.6" y2="93.6"/>
   <rect class="terminal" fill="none" height="0.699999" id="connector45terminal" stroke="none" stroke-width="0" width="0.699999" x="-0.349999" y="93.2499"/>
   <line class="pin" fill="none" id="connector4pin" stroke="none" stroke-linecap="round" stroke-width="0" x1="0.349999" x2="14.75" y1="93.6" y2="93.6"/>
   <g class="terminal" fill="none" height="0.699999" id="connector4terminal" stroke="none" stroke-width="0" width="0.699999" x="-0.349999" y="93.2499"/>
   <line class="pin" fill="none" id="connector39pin" stroke="none" stroke-linecap="round" stroke-width="0" x1="0.349999" x2="14.75" y1="93.6" y2="93.6"/>
   <rect class="terminal" fill="none" height="0.699999" id="connector39terminal" stroke="none" stroke-width="0" width="0.699999" x="-0.349999" y="93.2499"/>
   <line class="pin" fill="none" id="connector47pin" stroke="none" stroke-linecap="round" stroke-width="0" x1="0.349999" x2="14.75" y1="93.6" y2="93.6"/>
   <rect class="terminal" fill="none" height="0.699999" id="connector47terminal" stroke="none" stroke-width="0" width="0.699999" x="-0.349999" y="93.2499"/>
   <line class="pin" fill="none" id="connector42pin" stroke="none" stroke-linecap="round" stroke-width="0" x1="0.349999" x2="14.75" y1="93.6" y2="93.6"/>
   <rect class="terminal" fill="none" height="0.699999" id="connector42terminal" stroke="none" stroke-width="0" width="0.699999" x="-0.349999" y="93.2499"/>
   <line class="pin" fill="none" id="connector59pin" stroke="#787878" stroke-linecap="round" stroke-width="0.699999" x1="0.349999" x2="14.75" y1="93.6" y2="93.6"/>
   <text class="text" fill="#8c8c8c" font-family="'Droid Sans'" font-size="3.49999" stroke="none" stroke-width="0" text-anchor="start" x="16.15" y="94.2999">A4/SDA</text>
   <g class="terminal" fill="none" height="0.699999" id="connector59terminal" stroke="none" stroke-width="0" width="0.699999" x="-0.349999" y="93.2499"/>
   <line class="pin" fill="none" id="connector5pin" stroke="none" stroke-linecap="round" stroke-width="0" x1="0.349999" x2="14.75" y1="100.8" y2="100.8"/>
   <g class="terminal" fill="none" height="0.699999" id="connector5terminal" stroke="none" stroke-width="0" width="0.699999" x="-0.349999" y="100.45"/>
   <line class="pin" fill="none" id="connector60pin" stroke="#787878" stroke-linecap="round" stroke-width="0.699999" x1="0.349999" x2="14.75" y1="100.8" y2="100.8"/>
   <text class="text" fill="#8c8c8c" font-family="'Droid Sans'" font-size="3.49999" stroke="none" stroke-width="0" text-anchor="start" x="16.15" y="101.5">A5/SCL</text>
   <g class="terminal" fill="none" height="0.699999" id="connector60terminal" stroke="none" stroke-width="0" width="0.699999" x="-0.349999" y="100.45"/>
   <line class="pin" fill="none" id="connector91pin" stroke="#787878" stroke-linecap="round" stroke-width="0.699999" x1="0.349999" x2="14.75" y1="136.8" y2="136.8"/>
   <text class="text" fill="#8c8c8c" font-family="'Droid Sans'" font-size="3.49999" stroke="none" stroke-width="0" text-anchor="start" x="16.15" y="137.5">N/C</text>
   <g class="terminal" fill="none" height="0.699999" id="connector91terminal" stroke="none" stroke-width="0" width="0.699999" x="-0.349999" y="136.45"/>
   <line class="pin" fill="none" id="connector88pin" stroke="none" stroke-linecap="round" stroke-width="0" x1="57.6" x2="57.6" y1="150.85" y2="165.25"/>
   <g class="terminal" fill="none" height="0.699999" id="connector88terminal" stroke="none" stroke-width="0" width="0.699999" x="57.2499" y="165.25"/>
   <line class="pin" fill="none" id="connector57pin" stroke="none" stroke-linecap="round" stroke-width="0" x1="57.6" x2="57.6" y1="150.85" y2="165.25"/>
   <g class="terminal" fill="none" height="0.699999" id="connector57terminal" stroke="none" stroke-width="0" width="0.699999" x="57.2499" y="165.25"/>
   <line class="pin" fill="none" id="connector44pin" stroke="none" stroke-linecap="round" stroke-width="0" x1="57.6" x2="57.6" y1="150.85" y2="165.25"/>
   <rect class="terminal" fill="none" height="0.699999" id="connector44terminal" stroke="none" stroke-width="0" width="0.699999" x="57.2499" y="165.25"/>
   <line class="pin" fill="none" id="connector50pin" stroke="none" stroke-linecap="round" stroke-width="0" x1="57.6" x2="57.6" y1="150.85" y2="165.25"/>
   <rect class="terminal" fill="none" height="0.699999" id="connector50terminal" stroke="none" stroke-width="0" width="0.699999" x="57.2499" y="165.25"/>
   <line class="pin" fill="none" id="connector89pin" stroke="#787878" stroke-linecap="round" stroke-width="0.699999" x1="57.6" x2="57.6" y1="150.85" y2="165.25"/>
   <g transform="matrix(1, 0, 0, 1, 58.2999, 149.45)">
    <g>
     <g transform="rotate(270)">
      <g>
       <text class="text" fill="#8c8c8c" font-family="'Droid Sans'" font-size="3.49999" stroke="none" stroke-width="0" text-anchor="start" x="0" y="0">GND</text>
      </g>
     </g>
    </g>
   </g>
   <g class="terminal" fill="none" height="0.699999" id="connector89terminal" stroke="none" stroke-width="0" width="0.699999" x="57.2499" y="165.25"/>
   <line class="pin" fill="none" id="connector86pin" stroke="#787878" stroke-linecap="round" stroke-width="0.699999" x1="36" x2="36" y1="0.349999" y2="14.75"/>
   <g transform="matrix(1, 0, 0, 1, 36.6999, 16.15)">
    <g>
     <g transform="rotate(270)">
      <g>
       <text class="text" fill="#8c8c8c" font-family="'Droid Sans'" font-size="3.49999" stroke="none" stroke-width="0" text-anchor="end" x="0" y="0">3V3</text>
      </g>
     </g>
    </g>
   </g>
   <g class="terminal" fill="none" height="0.699999" id="connector86terminal" stroke="none" stroke-width="0" width="0.699999" x="35.6499" y="-0.349999"/>
   <line class="pin" fill="none" id="connector40pin" stroke="none" stroke-linecap="round" stroke-width="0" x1="50.4" x2="50.4" y1="0.349999" y2="14.75"/>
   <rect class="terminal" fill="none" height="0.699999" id="connector40terminal" stroke="none" stroke-width="0" width="0.699999" x="50.0499" y="-0.349999"/>
   <line class="pin" fill="none" id="connector46pin" stroke="none" stroke-linecap="round" stroke-width="0" x1="50.4" x2="50.4" y1="0.349999" y2="14.75"/>
   <rect class="terminal" fill="none" height="0.699999" id="connector46terminal" stroke="none" stroke-width="0" width="0.699999" x="50.0499" y="-0.349999"/>
   <line class="pin" fill="none" id="connector87pin" stroke="#787878" stroke-linecap="round" stroke-width="0.699999" x1="50.4" x2="50.4" y1="0.349999" y2="14.75"/>
   <g transform="matrix(1, 0, 0, 1, 51.0999, 16.15)">
    <g>
     <g transform="rotate(270)">
      <g>
       <text class="text" fill="#8c8c8c" font-family="'Droid Sans'" font-size="3.49999" stroke="none" stroke-width="0" text-anchor="end" x="0" y="0">5V</text>
      </g>
     </g>
    </g>
   </g>
   <g class="terminal" fill="none" height="0.699999" id="connector87terminal" stroke="none" stroke-width="0" width="0.699999" x="50.0499" y="-0.349999"/>
   <line class="pin" fill="none" id="connector90pin" stroke="#787878" stroke-linecap="round" stroke-width="0.699999" x1="64.8" x2="64.8" y1="0.349999" y2="14.75"/>
   <g transform="matrix(1, 0, 0, 1, 65.4999, 16.15)">
    <g>
     <g transform="rotate(270)">
      <g>
       <text class="text" fill="#8c8c8c" font-family="'Droid Sans'" font-size="3.49999" stroke="none" stroke-width="0" text-anchor="end" x="0" y="0">VIN</text>
      </g>
     </g>
    </g>
   </g>
   <g class="terminal" fill="none" height="0.699999" id="connector90terminal" stroke="none" stroke-width="0" width="0.699999" x="64.4499" y="-0.349999"/>
   <text class="text" fill="#000000" font-family="'Droid Sans'" font-size="4.25001" id="label" stroke="none" stroke-width="0" text-anchor="middle" x="54.4501" y="76.4498">Arduino</text>
   <text class="text" fill="#000000" font-family="'Droid Sans'" font-size="4.25001" id="label" stroke="none" stroke-width="0" text-anchor="middle" x="54.4501" y="80.9833">Uno</text>
   <text class="text" fill="#000000" font-family="'Droid Sans'" font-size="4.25001" id="label" stroke="none" stroke-width="0" text-anchor="middle" x="54.4501" y="85.5167">(Rev3)</text>
  </g>
 </g>
 <g id="partLabel" partID="17203410">
  <g transform="translate(147.329,36.1338)">
   <g fill="#000000" fill-opacity="1" font-family="'DroidSans'" font-size="5.000" font-style="normal" font-weight="normal" id="schematicLabel" stroke="none">
    <text x="0" y="5.000">current limiting resistor</text>
    <text x="0" y="10.000">220&#x3a9;</text>
   </g>
  </g>
 </g>
 <g partID="18768530">
  <line stroke="#404040" stroke-linecap="round" stroke-width="0.699998" x1="201.513" x2="57.5999" y1="165.556" y2="165.6"/>
 </g>
 <circle cx="201.513" cy="165.556" fill="black" r="0.72" stroke="none" stroke-width="0"/>
 <g partID="18768540">
  <line stroke="#404040" stroke-linecap="round" stroke-width="0.699998" x1="200.684" x2="201.555" y1="129.568" y2="129.57"/>
 </g>
 <circle cx="201.555" cy="129.57" fill="black" r="0.72" stroke="none" stroke-width="0"/>
 <g partID="18769340">
  <line stroke="#404040" stroke-linecap="round" stroke-width="0.699998" x1="201.555" x2="201.513" y1="129.57" y2="165.556"/>
 </g>
 <circle cx="201.555" cy="129.57" fill="black" r="0.72" stroke="none" stroke-width="0"/>
 <circle cx="201.513" cy="165.556" fill="black" r="0.72" stroke="none" stroke-width="0"/>
 <g partID="18769250">
  <line stroke="#404040" stroke-linecap="round" stroke-width="0.699998" x1="201.513" x2="200.637" y1="86.473" y2="86.3859"/>
 </g>
 <circle cx="201.513" cy="86.473" fill="black" r="0.72" stroke="none" stroke-width="0"/>
 <g partID="18768800">
  <line stroke="#404040" stroke-linecap="round" stroke-width="0.699998" x1="201.6" x2="201.513" y1="79.1999" y2="86.473"/>
 </g>
 <circle cx="201.513" cy="86.473" fill="black" r="0.72" stroke="none" stroke-width="0"/>
 <g partID="18768900">
  <line stroke="#404040" stroke-linecap="round" stroke-width="0.699998" x1="144" x2="143.898" y1="43.1999" y2="57.6409"/>
 </g>
 <circle cx="143.898" cy="57.6409" fill="black" r="0.72" stroke="none" stroke-width="0"/>
 <g partID="18769610">
  <line stroke="#404040" stroke-linecap="round" stroke-width="0.699998" x1="143.898" x2="201.6" y1="57.6409" y2="57.5994"/>
 </g>
 <circle cx="143.898" cy="57.6409" fill="black" r="0.72" stroke="none" stroke-width="0"/>
 <g partID="18760680">
  <line stroke="#404040" stroke-linecap="round" stroke-width="0.699998" x1="200.684" x2="201.555" y1="100.768" y2="100.835"/>
 </g>
 <circle cx="201.555" cy="100.835" fill="black" r="0.72" stroke="none" stroke-width="0"/>
 <g partID="18769430">
  <line stroke="#404040" stroke-linecap="round" stroke-width="0.699998" x1="201.555" x2="200.637" y1="115.143" y2="115.186"/>
 </g>
 <circle cx="201.555" cy="115.143" fill="black" r="0.72" stroke="none" stroke-width="0"/>
 <g partID="18769520">
  <line stroke="#404040" stroke-linecap="round" stroke-width="0.699998" x1="201.555" x2="201.555" y1="100.835" y2="115.143"/>
 </g>
 <circle cx="201.555" cy="100.835" fill="black" r="0.72" stroke="none" stroke-width="0"/>
 <circle cx="201.555" cy="115.143" fill="black" r="0.72" stroke="none" stroke-width="0"/>
 <g partID="18760950">
  <line stroke="#404040" stroke-linecap="round" stroke-width="0.699998" x1="143.893" x2="143.893" y1="93.659" y2="115.288"/>
 </g>
 <circle cx="143.893" cy="93.659" fill="black" r="0.72" stroke="none" stroke-width="0"/>
 <circle cx="143.893" cy="115.288" fill="black" r="0.72" stroke="none" stroke-width="0"/>
 <g partID="18760900">
  <line stroke="#404040" stroke-linecap="round" stroke-width="0.699998" x1="143.893" x2="172.8" y1="115.288" y2="115.187"/>
 </g>
 <circle cx="143.893" cy="115.288" fill="black" r="0.72" stroke="none" stroke-width="0"/>
 <g partID="18760750">
  <line stroke="#404040" stroke-linecap="round" stroke-width="0.699998" x1="108" x2="143.893" y1="93.5999" y2="93.659"/>
 </g>
 <circle cx="143.893" cy="93.659" fill="black" r="0.72" stroke="none" stroke-width="0"/>
 <g partID="18760840">
  <line stroke="#404040" stroke-linecap="round" stroke-width="0.699998" x1="172.8" x2="108" y1="86.3869" y2="86.3999"/>
 </g>
 <g partID="18761020">
  <line stroke="#404040" stroke-linecap="round" stroke-width="0.699998" x1="107.844" x2="108" y1="72.0294" y2="71.9999"/>
 </g>
 <circle cx="107.844" cy="72.0294" fill="black" r="0.72" stroke="none" stroke-width="0"/>
 <g partID="18768690">
  <line stroke="#404040" stroke-linecap="round" stroke-width="0.699998" x1="115.278" x2="107.844" y1="71.9526" y2="72.0294"/>
 </g>
 <circle cx="115.278" cy="71.9526" fill="black" r="0.72" stroke="none" stroke-width="0"/>
 <circle cx="107.844" cy="72.0294" fill="black" r="0.72" stroke="none" stroke-width="0"/>
 <g partID="18761030">
  <line stroke="#404040" stroke-linecap="round" stroke-width="0.699998" x1="115.2" x2="115.278" y1="43.1999" y2="71.9526"/>
 </g>
 <circle cx="115.278" cy="71.9526" fill="black" r="0.72" stroke="none" stroke-width="0"/>
 <g id="partLabel" partID="18757880">
  <g transform="translate(201.181,76.8264)">
   <g fill="#000000" fill-opacity="1" font-family="'DroidSans'" font-size="5.000" font-style="normal" font-weight="normal" id="schematicLabel" stroke="none">
    <text x="0" y="5.000">Button (OFF)</text>
   </g>
  </g>
 </g>
 <g id="partLabel" partID="18757910">
  <g transform="translate(201.181,105.626)">
   <g fill="#000000" fill-opacity="1" font-family="'DroidSans'" font-size="5.000" font-style="normal" font-weight="normal" id="schematicLabel" stroke="none">
    <text x="0" y="5.000">Button (ON)</text>
   </g>
  </g>
 </g>
 <g id="partLabel" partID="18767860">
  <g transform="translate(205.379,46.1834)">
   <g fill="#000000" fill-opacity="1" font-family="'DroidSans'" font-size="5.000" font-style="normal" font-weight="normal" id="schematicLabel" stroke="none">
    <text x="0" y="5.000">LED (3V)</text>
    <text x="0" y="10.000">Red (633nm)</text>
   </g>
  </g>
 </g>
</svg>
